<svg width="42" height="41" viewBox="0 0 42 41" fill="none" xmlns="http://www.w3.org/2000/svg">
<g clip-path="url(#clip0_2149_176)">
<g filter="url(#filter0_d_2149_176)">
<path d="M20.959 0.160156C26.6191 0.160156 27.3164 0.200195 29.5312 0.280273C31.7051 0.360352 33.2227 0.720703 34.5762 1.24121C35.9707 1.76172 37.1191 2.44238 38.2676 3.56348C39.416 4.68457 40.1133 5.80566 40.6465 7.16699C41.1797 8.48828 41.5488 9.96973 41.6309 12.0918C41.7129 14.2539 41.7539 14.9346 41.7539 20.46C41.7539 25.9854 41.7129 26.666 41.6309 28.8281C41.5488 30.9502 41.1797 32.4316 40.6465 33.7529C40.1133 35.1143 39.416 36.2354 38.2676 37.3564C37.1191 38.4775 35.9707 39.1582 34.5762 39.6787C33.2227 40.1992 31.7051 40.5596 29.5312 40.6396C27.3164 40.7197 26.6191 40.7598 20.959 40.7598C15.2988 40.7598 14.6016 40.7197 12.3867 40.6396C10.2129 40.5596 8.69531 40.1992 7.3418 39.6787C5.94727 39.1582 4.79883 38.4775 3.65039 37.3564C2.50195 36.2354 1.80469 35.1143 1.27148 33.7529C0.738281 32.4316 0.369141 30.9502 0.287109 28.8281C0.205078 26.666 0.164062 25.9854 0.164062 20.46C0.164062 14.9346 0.205078 14.2539 0.287109 12.0918C0.369141 9.96973 0.738281 8.48828 1.27148 7.16699C1.80469 5.80566 2.50195 4.68457 3.65039 3.56348C4.79883 2.44238 5.94727 1.76172 7.3418 1.24121C8.69531 0.720703 10.2129 0.360352 12.3867 0.280273C14.6016 0.200195 15.2988 0.160156 20.959 0.160156ZM20.959 2.80273C15.0527 2.80273 14.3555 2.84277 12.0586 2.92285C9.92578 3.00293 8.73633 3.40332 7.95703 3.68359C5.94727 4.48438 4.59375 5.80566 3.77344 7.76758C3.48633 8.52832 3.07617 9.68945 2.99414 11.7715C2.91211 14.0137 2.87109 14.6943 2.87109 20.46C2.87109 26.2256 2.91211 26.9062 2.99414 29.1484C3.07617 31.2305 3.48633 32.3916 3.77344 33.1523C4.59375 35.1143 5.94727 36.4355 7.95703 37.2363C8.73633 37.5166 9.92578 37.917 12.0586 37.9971C14.3555 38.0771 15.0527 38.1172 20.959 38.1172C26.8652 38.1172 27.5625 38.0771 29.8594 37.9971C31.9922 37.917 33.1816 37.5166 33.9609 37.2363C35.9707 36.4355 37.3242 35.1143 38.1445 33.1523C38.4316 32.3916 38.8418 31.2305 38.9238 29.1484C39.0059 26.9062 39.0469 26.2256 39.0469 20.46C39.0469 14.6943 39.0059 14.0137 38.9238 11.7715C38.8418 9.68945 38.4316 8.52832 38.1445 7.76758C37.3242 5.80566 35.9707 4.48438 33.9609 3.68359C33.1816 3.40332 31.9922 3.00293 29.8594 2.92285C27.5625 2.84277 26.8652 2.80273 20.959 2.80273ZM20.959 28.5879C25.5527 28.5879 29.2852 24.9443 29.2852 20.46C29.2852 15.9756 25.5527 12.332 20.959 12.332C16.3652 12.332 12.6328 15.9756 12.6328 20.46C12.6328 24.9443 16.3652 28.5879 20.959 28.5879ZM20.959 10.0498C26.8652 10.0498 31.623 14.6943 31.623 20.46C31.623 26.2256 26.8652 30.8701 20.959 30.8701C15.0527 30.8701 10.2949 26.2256 10.2949 20.46C10.2949 14.6943 15.0527 10.0498 20.959 10.0498ZM34.5762 9.64941C34.5762 11.0107 33.4277 12.0518 32.0332 12.0518C30.6387 12.0518 29.5723 11.0107 29.5723 9.64941C29.5723 8.28809 30.6387 7.16699 32.0332 7.16699C33.4277 7.16699 34.5762 8.28809 34.5762 9.64941Z" fill="black"/>
</g>
</g>
<defs>
<filter id="filter0_d_2149_176" x="-3.83594" y="0.160156" width="49.5898" height="48.5996" filterUnits="userSpaceOnUse" color-interpolation-filters="sRGB">
<feFlood flood-opacity="0" result="BackgroundImageFix"/>
<feColorMatrix in="SourceAlpha" type="matrix" values="0 0 0 0 0 0 0 0 0 0 0 0 0 0 0 0 0 0 127 0" result="hardAlpha"/>
<feOffset dy="4"/>
<feGaussianBlur stdDeviation="2"/>
<feComposite in2="hardAlpha" operator="out"/>
<feColorMatrix type="matrix" values="0 0 0 0 0 0 0 0 0 0 0 0 0 0 0 0 0 0 0.25 0"/>
<feBlend mode="normal" in2="BackgroundImageFix" result="effect1_dropShadow_2149_176"/>
<feBlend mode="normal" in="SourceGraphic" in2="effect1_dropShadow_2149_176" result="shape"/>
</filter>
<clipPath id="clip0_2149_176">
<rect width="42" height="41" fill="white"/>
</clipPath>
</defs>
</svg>
