<svg width="44" height="46" viewBox="0 0 44 46" fill="none" xmlns="http://www.w3.org/2000/svg">
<g filter="url(#filter0_d_2149_179)">
<path d="M22 3.4165C12.34 3.4165 4.5 11.0698 4.5 20.4998C4.5 29.9298 12.34 37.5832 22 37.5832C31.66 37.5832 39.5 29.9298 39.5 20.4998C39.5 11.0698 31.66 3.4165 22 3.4165ZM30.12 15.0332C29.8575 17.7323 28.72 24.2923 28.1425 27.3161C27.8975 28.5973 27.4075 29.0244 26.9525 29.0757C25.9375 29.1611 25.1675 28.4265 24.1875 27.7944C22.6475 26.8036 21.7725 26.1886 20.285 25.2319C18.5525 24.1215 19.6725 23.5065 20.67 22.5157C20.9325 22.2594 25.4125 18.279 25.5 17.9203C25.5122 17.8659 25.5105 17.8095 25.4953 17.7559C25.48 17.7023 25.4516 17.6532 25.4125 17.6128C25.3075 17.5273 25.1675 17.5615 25.045 17.5786C24.8875 17.6128 22.4375 19.2015 17.66 22.3448C16.96 22.8061 16.33 23.0453 15.77 23.0282C15.14 23.0111 13.95 22.6865 13.0575 22.3961C11.955 22.0544 11.0975 21.8665 11.1675 21.2686C11.2025 20.9611 11.64 20.6536 12.4625 20.329C17.5725 18.1594 20.9675 16.7244 22.665 16.0411C27.53 14.0594 28.5275 13.7178 29.1925 13.7178C29.3325 13.7178 29.665 13.7519 29.875 13.9228C30.05 14.0594 30.1025 14.2473 30.12 14.384C30.1025 14.4865 30.1375 14.794 30.12 15.0332Z" fill="black"/>
</g>
<defs>
<filter id="filter0_d_2149_179" x="0.5" y="3.4165" width="43" height="42.1665" filterUnits="userSpaceOnUse" color-interpolation-filters="sRGB">
<feFlood flood-opacity="0" result="BackgroundImageFix"/>
<feColorMatrix in="SourceAlpha" type="matrix" values="0 0 0 0 0 0 0 0 0 0 0 0 0 0 0 0 0 0 127 0" result="hardAlpha"/>
<feOffset dy="4"/>
<feGaussianBlur stdDeviation="2"/>
<feComposite in2="hardAlpha" operator="out"/>
<feColorMatrix type="matrix" values="0 0 0 0 0 0 0 0 0 0 0 0 0 0 0 0 0 0 0.25 0"/>
<feBlend mode="normal" in2="BackgroundImageFix" result="effect1_dropShadow_2149_179"/>
<feBlend mode="normal" in="SourceGraphic" in2="effect1_dropShadow_2149_179" result="shape"/>
</filter>
</defs>
</svg>
