<svg width="46" height="47" viewBox="0 0 46 47" fill="none" xmlns="http://www.w3.org/2000/svg">
<g filter="url(#filter0_d_2149_177)">
<path fill-rule="evenodd" clip-rule="evenodd" d="M36.0208 7.77567C34.322 6.1165 32.3038 4.80174 30.0824 3.90706C27.8609 3.01237 25.4802 2.55545 23.0771 2.56258C12.9922 2.56258 4.7825 10.5368 4.7784 20.3399C4.7739 23.4615 5.6168 26.5284 7.22129 29.2286L4.625 38.4376L14.3252 35.9656C17.0102 37.3856 20.016 38.1288 23.0697 38.1277H23.0771C33.1612 38.1277 41.3701 30.1527 41.375 20.3503C41.3811 18.0125 40.9109 15.6968 39.9917 13.538C39.0725 11.3793 37.7227 9.42047 36.0208 7.77567ZM23.0771 35.1272H23.0705C20.3482 35.1279 17.6754 34.4167 15.3301 33.0675L14.7747 32.7472L9.01859 34.2143L10.555 28.7617L10.1933 28.2012C8.6711 25.8486 7.86462 23.1225 7.8677 20.3399C7.8677 12.1936 14.6935 5.56551 23.0829 5.56551C27.1073 5.5585 30.9698 7.11225 33.8208 9.88502C36.6718 12.6578 38.2779 16.4225 38.2857 20.3511C38.2824 28.4983 31.4599 35.1272 23.0771 35.1272ZM31.4189 24.0612C30.962 23.8385 28.7118 22.7639 28.2951 22.6157C27.8784 22.4676 27.5708 22.3931 27.2664 22.8384C26.9621 23.2836 26.0852 24.2798 25.8186 24.5801C25.552 24.8804 25.2854 24.9132 24.8285 24.6906C24.3716 24.468 22.8975 23.9995 21.151 22.486C19.7918 21.3081 18.8746 19.8539 18.608 19.4094C18.3414 18.965 18.5793 18.7239 18.8082 18.5029C19.0141 18.3035 19.2651 17.984 19.494 17.7246C19.7229 17.4651 19.7991 17.2793 19.9509 16.983C20.1027 16.6868 20.0272 16.4273 19.9132 16.2055C19.7991 15.9837 18.8845 13.7967 18.5039 12.9071C18.1323 12.0406 17.7557 12.1583 17.4752 12.1447C17.2086 12.1319 16.901 12.1287 16.5983 12.1287C16.3669 12.1346 16.1392 12.187 15.9295 12.2826C15.7197 12.3782 15.5324 12.515 15.3793 12.6845C14.9601 13.1297 13.7789 14.2059 13.7789 16.3905C13.7789 18.575 15.4195 20.6891 15.6459 20.9854C15.8723 21.2816 18.8697 25.7684 23.4561 27.6927C24.3077 28.0487 25.1779 28.3609 26.063 28.628C27.1582 28.9659 28.1548 28.9187 28.9423 28.8042C29.8209 28.6769 31.6494 27.7295 32.0292 26.6917C32.409 25.6539 32.4098 24.765 32.2958 24.5801C32.1818 24.3951 31.8766 24.283 31.4189 24.0612Z" fill="black"/>
</g>
<defs>
<filter id="filter0_d_2149_177" x="0.625" y="2.5625" width="44.75" height="43.875" filterUnits="userSpaceOnUse" color-interpolation-filters="sRGB">
<feFlood flood-opacity="0" result="BackgroundImageFix"/>
<feColorMatrix in="SourceAlpha" type="matrix" values="0 0 0 0 0 0 0 0 0 0 0 0 0 0 0 0 0 0 127 0" result="hardAlpha"/>
<feOffset dy="4"/>
<feGaussianBlur stdDeviation="2"/>
<feComposite in2="hardAlpha" operator="out"/>
<feColorMatrix type="matrix" values="0 0 0 0 0 0 0 0 0 0 0 0 0 0 0 0 0 0 0.25 0"/>
<feBlend mode="normal" in2="BackgroundImageFix" result="effect1_dropShadow_2149_177"/>
<feBlend mode="normal" in="SourceGraphic" in2="effect1_dropShadow_2149_177" result="shape"/>
</filter>
</defs>
</svg>
